<?xml version="1.0" encoding="utf-8"?>
<!-- Generator: Adobe Illustrator 27.5.0, SVG Export Plug-In . SVG Version: 6.00 Build 0)  -->
<svg version="1.1" id="Layer_1" xmlns:xodm="http://www.corel.com/coreldraw/odm/2003"
	 xmlns="http://www.w3.org/2000/svg" xmlns:xlink="http://www.w3.org/1999/xlink" x="0px" y="0px" viewBox="0 0 4000 4000"
	 style="enable-background:new 0 0 4000 4000;" xml:space="preserve">
<g id="Layer_x5F_1">
	<g id="_2819150461728">
		<rect style="fill:#FFFFFF;" width="4000" height="4000"/>
		<g>
			<path style="fill:#1B84F8;" d="M1880.36,2396.12v-507.58l-444.49-183.24c-50.5,10.53-100.79,25.56-150.96,44.38v591.63
				C1383.78,2319.93,1702.28,2264.89,1880.36,2396.12L1880.36,2396.12z M2753.13,1434.85c3.26,0.15,6.49,0.39,9.69,0.73v-310.39
				h-764.19c-6.83,0-12.46,5.62-12.46,12.45c0,7.46-1.12,13.67,3.67,18.46c2.26,2.26,5.38,3.67,8.79,3.67h729.61v275.81
				L2753.13,1434.85z M2811.23,1448.56c103.25,45.93,129.29,181.8,48.73,262.37c-63.2,63.2-165.66,63.2-228.86,0
				c-80.57-80.58-54.52-216.44,48.73-262.37v-240.38h-54.23l-247.54,110.76l15.86,341.28c62.28,13.67,115.64,31.74,178.71,56.38
				v53.95h80.92v63.03h62.93v792.17l-31.96-10.84c-1.2-0.41-409.11-140.51-646.49-65.47c-20.61,102.99-147.41,145.4-225.87,72.97
				c-20.58-19.01-35.32-44.31-41.05-72.97c-237.39-75.04-645.3,65.06-646.5,65.47l-31.96,10.84v-792.17h62.94v-63.03h80.91v-53.95
				c63.07-24.64,116.43-42.71,178.72-56.38l15.85-341.28l-301.26-134.81l774.76-338.53l529.06,231.18h377.6L2811.23,1448.56
				L2811.23,1448.56z M2825.73,1516.3c-44.29-44.3-116.11-44.3-160.4,0c-44.29,44.29-44.29,116.11,0,160.4s116.11,44.29,160.4,0
				C2870.02,1632.41,2870.02,1560.59,2825.73,1516.3z M1998.63,1076.78h314.44l-408.5-178.5l-655.43,286.39l655.43,293.29
				l602.9-269.78h-508.84c-33.56,0-60.87-27.32-60.87-60.87v-9.67C1937.76,1104.09,1965.08,1076.78,1998.63,1076.78L1998.63,1076.78
				z M2330.73,1340.12l-426.16,190.7c-142.05-63.57-284.11-127.14-426.16-190.7l-15.07,324.31l441.23,181.9l441.23-181.9
				L2330.73,1340.12L2330.73,1340.12z M2373.27,1705.3l-444.5,183.24v507.58c178.09-131.23,496.59-76.18,595.45-54.81v-591.63
				C2474.05,1730.86,2423.76,1715.83,2373.27,1705.3z M2572.63,1818.97v583.84l-30.16-7.76c-1.28-0.33-446.14-117.24-620.22,71.06
				l-17.68,19.13l-17.68-19.13c-174.09-188.3-618.94-71.39-620.23-71.06l-30.16,7.76v-583.84H1204v634.44
				c115.64-26.81,532.13-110.17,700.57,35.42c168.44-145.59,584.92-62.23,700.57-35.42v-634.44L2572.63,1818.97L2572.63,1818.97z
				 M1155.59,1882h-14.53v676.9c105.66-32.47,449.27-126.65,660.14-50.26l14.69,5.32l1.19,15.58
				c5.56,72.63,93.43,106.94,147.18,57.32c15.67-14.47,26.05-34.62,27.79-57.32l1.19-15.58l14.7-5.32
				c210.87-76.39,554.47,17.79,660.13,50.26V1882h-14.52v633.36l-30.26-7.87c-1.56-0.4-541.44-143.23-700.95,31.11l-17.77,19.42
				l-17.78-19.42c-159.5-174.34-699.39-31.51-700.95-31.11l-30.25,7.87L1155.59,1882L1155.59,1882z"/>
			<path style="fill:#1B84F8;" d="M874.27,2906.97v73.14h98.21v46.4h-98.21v77.32h110.75v47.64H815.75v-292.14h169.27v47.64
				L874.27,2906.97L874.27,2906.97z M1140.08,2859.75c30.65,0,57.61,5.99,80.87,17.97c23.27,11.98,41.24,29.04,53.92,51.2
				c12.67,22.15,19.01,47.85,19.01,77.11c0,29.25-6.34,54.82-19.01,76.69c-12.68,21.87-30.65,38.8-53.92,50.78
				c-23.26,11.98-50.22,17.97-80.87,17.97H1038.1v-291.72H1140.08z M1137.99,3101.74c30.65,0,54.33-8.36,71.05-25.08
				c16.72-16.72,25.08-40.26,25.08-70.63c0-30.37-8.36-54.13-25.08-71.26c-16.72-17.14-40.4-25.71-71.05-25.71h-41.38v192.68
				H1137.99z M1395.44,2859.75v180.55c0,19.78,5.16,34.9,15.47,45.35c10.31,10.44,24.8,15.67,43.46,15.67
				c18.95,0,33.58-5.23,43.89-15.67c10.31-10.45,15.46-25.57,15.46-45.35v-180.55h58.93v180.13c0,24.8-5.36,45.77-16.09,62.9
				c-10.73,17.14-25.08,30.02-43.05,38.66c-17.97,8.64-37.96,12.96-59.97,12.96c-21.74,0-41.45-4.32-59.14-12.96
				c-17.69-8.64-31.7-21.52-42.01-38.66c-10.3-17.13-15.46-38.1-15.46-62.9v-180.13H1395.44z M1614.86,3005.19
				c0-28.7,6.48-54.4,19.44-77.11c12.95-22.71,30.65-40.4,53.08-53.08c22.43-12.68,47.57-19.02,75.44-19.02
				c32.6,0,61.16,8.36,85.68,25.08s41.65,39.85,51.4,69.38h-67.29c-6.68-13.93-16.09-24.38-28.21-31.35
				c-12.12-6.96-26.12-10.44-42-10.44c-17,0-32.11,3.97-45.35,11.91c-13.23,7.94-23.54,19.15-30.93,33.64
				c-7.38,14.49-11.07,31.49-11.07,50.99c0,19.23,3.69,36.15,11.07,50.78c7.39,14.63,17.7,25.91,30.93,33.86
				c13.24,7.94,28.35,11.91,45.35,11.91c15.88,0,29.88-3.56,42-10.66c12.12-7.11,21.53-17.62,28.21-31.56h67.29
				c-9.75,29.82-26.82,53.01-51.2,69.59s-53,24.87-85.88,24.87c-27.87,0-53.01-6.34-75.44-19.02
				c-22.43-12.67-40.13-30.3-53.08-52.87C1621.34,3059.52,1614.86,3033.89,1614.86,3005.19L1614.86,3005.19z M2128.93,3095.89
				h-116.18l-19.23,55.58h-61.44l104.91-292.14h68.12l104.91,292.14h-61.86L2128.93,3095.89L2128.93,3095.89z M2113.05,3049.07
				l-42.21-122.03l-42.21,122.03H2113.05z M2447.83,2859.75v47.22h-77.74v244.5h-58.51v-244.5h-77.74v-47.22H2447.83z
				 M2548.97,2859.75v291.72h-58.51v-291.72H2548.97z M2742.06,3154.4c-27.31,0-52.38-6.41-75.23-19.23
				c-22.85-12.81-40.96-30.58-54.33-53.29c-13.38-22.7-20.06-48.41-20.06-77.11c0-28.42,6.68-53.98,20.06-76.69
				c13.37-22.71,31.48-40.47,54.33-53.29c22.85-12.81,47.92-19.22,75.23-19.22c27.58,0,52.73,6.41,75.44,19.22
				c22.71,12.82,40.68,30.58,53.91,53.29c13.24,22.71,19.86,48.27,19.86,76.69c0,28.7-6.62,54.41-19.86,77.11
				c-13.23,22.71-31.27,40.48-54.12,53.29C2794.44,3147.99,2769.37,3154.4,2742.06,3154.4L2742.06,3154.4z M2742.06,3102.15
				c17.55,0,33.02-3.97,46.39-11.91c13.38-7.94,23.82-19.29,31.35-34.06c7.52-14.77,11.28-31.9,11.28-51.41
				c0-19.5-3.76-36.57-11.28-51.2c-7.53-14.62-17.97-25.84-31.35-33.64c-13.37-7.8-28.84-11.7-46.39-11.7
				c-17.55,0-33.09,3.9-46.6,11.7s-24.03,19.02-31.56,33.64c-7.52,14.63-11.28,31.7-11.28,51.2c0,19.51,3.76,36.64,11.28,51.41
				c7.53,14.77,18.05,26.12,31.56,34.06S2724.51,3102.15,2742.06,3102.15z M3184.25,3151.47h-58.52l-132.48-200.19v200.19h-58.52
				v-292.14h58.52l132.48,200.61v-200.61h58.52V3151.47z"/>
		</g>
	</g>
</g>
</svg>
