<?xml version="1.0" encoding="utf-8"?>
<!-- Generator: Adobe Illustrator 27.5.0, SVG Export Plug-In . SVG Version: 6.00 Build 0)  -->
<svg version="1.1" xmlns="http://www.w3.org/2000/svg" xmlns:xlink="http://www.w3.org/1999/xlink" x="0px" y="0px"
	 viewBox="0 0 500 500" style="enable-background:new 0 0 500 500;" xml:space="preserve">
<g id="BACKGROUND">
	<rect style="fill:#FFFFFF;" width="500" height="500"/>
</g>
<g id="OBJECTS">
	<g>
		<g>
			
				<rect x="167.192" y="174.616" transform="matrix(0.7072 -0.707 0.707 0.7072 -70.6892 185.5491)" style="fill:#3382D1;" width="42.946" height="7"/>
			<g>
				
					<rect x="173.458" y="263.679" transform="matrix(0.7071 0.7071 -0.7071 0.7071 246.4638 -50.3768)" style="fill:#3382D1;" width="21.167" height="17.281"/>
				<path style="fill:#002D4F;" d="M185.374,285.872l-14.884-14.884c-1.093-1.093-2.847-1.148-4.006-0.125l-37.301,32.922
					c-3.656,3.226-3.831,8.868-0.384,12.316l11.462,11.462c3.448,3.448,9.089,3.272,12.316-0.384l32.922-37.301
					C186.522,288.719,186.467,286.965,185.374,285.872z"/>
				<path style="fill:#002D4F;" d="M315.525,140.837c-36.54-36.54-95.782-36.54-132.322,0c-36.54,36.54-36.54,95.782,0,132.322
					c36.54,36.54,95.782,36.54,132.322,0C352.065,236.619,352.065,177.376,315.525,140.837z M299.723,257.356
					c-27.812,27.812-72.905,27.812-100.718,0c-27.813-27.813-27.813-72.905,0-100.718c27.813-27.813,72.905-27.813,100.718,0
					C327.536,184.451,327.536,229.544,299.723,257.356z"/>
			</g>
			<path style="fill:#EA3560;" d="M350.765,105.58h-95.61l14.607,14.607l-21.761,21.761l-69.687,69.687
				c1.08,16.651,7.965,32.995,20.691,45.721c12.726,12.726,29.07,19.61,45.721,20.69l69.687-69.687l21.761-21.761l14.591,14.591
				V105.58z"/>
			<polygon style="fill:#FFFFFF;" points="180.79,257.638 175.841,252.689 195.658,232.87 195.658,219.007 234.407,180.258 
				239.356,185.208 202.658,221.906 202.658,235.77 			"/>
			<path style="fill:#FFFFFF;" d="M244.703,188.849c-7.562,0-13.714-6.152-13.714-13.714c0-7.562,6.152-13.714,13.714-13.714
				c7.561,0,13.714,6.152,13.714,13.714C258.417,182.697,252.265,188.849,244.703,188.849z M244.703,168.421
				c-3.702,0-6.714,3.012-6.714,6.714c0,3.702,3.012,6.714,6.714,6.714c3.702,0,6.714-3.012,6.714-6.714
				C251.417,171.433,248.405,168.421,244.703,168.421z"/>
			<path style="fill:#FFFFFF;" d="M294.947,190.37c-7.562,0-13.714-6.152-13.714-13.714c0-7.562,6.152-13.714,13.714-13.714
				c7.561,0,13.714,6.152,13.714,13.714C308.661,184.218,302.509,190.37,294.947,190.37z M294.947,169.942
				c-3.702,0-6.714,3.012-6.714,6.714c0,3.702,3.012,6.714,6.714,6.714c3.702,0,6.714-3.012,6.714-6.714
				C301.661,172.954,298.649,169.942,294.947,169.942z"/>
			<path style="fill:#FFFFFF;" d="M239.15,264.999c-7.562,0-13.714-6.152-13.714-13.714c0-7.562,6.152-13.714,13.714-13.714
				c7.562,0,13.714,6.152,13.714,13.714C252.864,258.847,246.712,264.999,239.15,264.999z M239.15,244.571
				c-3.702,0-6.714,3.012-6.714,6.714c0,3.702,3.012,6.714,6.714,6.714c3.702,0,6.714-3.012,6.714-6.714
				C245.864,247.583,242.853,244.571,239.15,244.571z"/>
			<path style="fill:#3382D1;" d="M212.114,169.331c-7.562,0-13.714-6.152-13.714-13.714s6.152-13.714,13.714-13.714
				c7.561,0,13.714,6.152,13.714,13.714S219.676,169.331,212.114,169.331z M212.114,148.904c-3.702,0-6.714,3.012-6.714,6.714
				c0,3.702,3.012,6.714,6.714,6.714c3.702,0,6.714-3.012,6.714-6.714C218.828,151.915,215.816,148.904,212.114,148.904z"/>
			<path style="fill:#3382D1;" d="M302.423,256.352c-7.561,0-13.714-6.152-13.714-13.714c0-7.562,6.152-13.714,13.714-13.714
				s13.714,6.152,13.714,13.714C316.137,250.2,309.984,256.352,302.423,256.352z M302.423,235.924c-3.702,0-6.714,3.012-6.714,6.714
				c0,3.702,3.012,6.714,6.714,6.714c3.702,0,6.714-3.012,6.714-6.714C309.137,238.936,306.125,235.924,302.423,235.924z"/>
			<polygon style="fill:#FFFFFF;" points="200.123,258.435 195.174,253.485 231.983,216.675 251.172,216.675 285.647,182.2 
				290.597,187.15 254.072,223.675 234.884,223.675 			"/>
			
				<rect x="210.014" y="263.845" transform="matrix(0.7072 -0.707 0.707 0.7072 -123.7937 235.7827)" style="fill:#FFFFFF;" width="25.489" height="7"/>
			<polygon style="fill:#3382D1;" points="242.144,297.497 237.194,292.548 269.124,260.616 280.985,260.616 292.473,249.129 
				297.422,254.079 283.886,267.616 272.024,267.616 			"/>
			<path style="fill:#002D4F;" d="M292.27,288.833c-1.959-4.57-3.908-9.145-5.834-13.73c-0.77-1.832-1.924-3.767-2.638-5.768
				c-27.074,14.971-61.823,10.991-84.793-11.978c-18.805-18.805-24.876-45.505-18.253-69.426c-0.542-0.089-1.086-0.173-1.631-0.243
				c-6.964-0.893-14.049-0.507-21.013-1.292c-6.799,30.25,1.549,63.218,25.094,86.763c29.651,29.651,74.25,35.238,109.538,16.766
				C292.585,289.561,292.426,289.197,292.27,288.833z"/>
			
				<rect x="302.468" y="106.434" transform="matrix(0.7071 -0.7071 0.7071 0.7071 -19.7281 259.1587)" style="fill:#002D4F;" width="1" height="93.92"/>
			<polygon style="fill:#002D4F;" points="203.349,263.294 202.642,262.587 236.054,229.175 264.954,229.175 275.97,218.159 
				276.677,218.866 265.368,230.175 236.468,230.175 			"/>
			<path style="fill:#002D4F;" d="M278.222,219.561c-1.772,0-3.214-1.442-3.214-3.214c0-1.772,1.441-3.214,3.214-3.214
				c1.772,0,3.214,1.442,3.214,3.214C281.436,218.119,279.994,219.561,278.222,219.561z M278.222,214.133
				c-1.221,0-2.214,0.993-2.214,2.214c0,1.221,0.993,2.214,2.214,2.214s2.214-0.993,2.214-2.214
				C280.436,215.126,279.442,214.133,278.222,214.133z"/>
			<path style="fill:#002D4F;" d="M311.503,202.271c-1.772,0-3.214-1.442-3.214-3.214c0-1.772,1.441-3.214,3.214-3.214
				c1.772,0,3.214,1.442,3.214,3.214C314.717,200.829,313.275,202.271,311.503,202.271z M311.503,196.843
				c-1.221,0-2.214,0.993-2.214,2.214c0,1.221,0.993,2.214,2.214,2.214s2.214-0.993,2.214-2.214
				C313.717,197.836,312.724,196.843,311.503,196.843z"/>
			<path style="fill:#002D4F;" d="M272.81,146.254c-1.772,0-3.214-1.442-3.214-3.214c0-1.772,1.441-3.214,3.214-3.214
				c1.773,0,3.214,1.442,3.214,3.214C276.023,144.812,274.582,146.254,272.81,146.254z M272.81,140.826
				c-1.221,0-2.214,0.993-2.214,2.214c0,1.221,0.993,2.214,2.214,2.214c1.221,0,2.214-0.993,2.214-2.214
				C275.023,141.819,274.03,140.826,272.81,140.826z"/>
			<path style="fill:#002D4F;" d="M199.187,186.998c-1.773,0-3.214-1.442-3.214-3.214c0-1.773,1.441-3.214,3.214-3.214
				c1.772,0,3.214,1.442,3.214,3.214C202.4,185.556,200.959,186.998,199.187,186.998z M199.187,181.57
				c-1.221,0-2.214,0.993-2.214,2.214c0,1.221,0.993,2.214,2.214,2.214s2.214-0.993,2.214-2.214
				C201.4,182.563,200.407,181.57,199.187,181.57z"/>
			<polygon style="fill:#002D4F;" points="172.637,205.073 171.93,204.366 184.834,191.462 190.991,191.462 196.854,185.6 
				197.561,186.307 191.405,192.462 185.248,192.462 			"/>
			<polygon style="fill:#002D4F;" points="179.755,226.226 179.048,225.519 193.33,211.237 226.381,211.237 234.959,202.659 
				248.324,202.659 270.662,180.321 270.662,167.503 262.104,158.945 262.104,153.186 270.698,144.593 271.405,145.3 263.104,153.6 
				263.104,158.531 271.662,167.089 271.662,180.735 248.738,203.659 235.373,203.659 226.795,212.237 193.744,212.237 			"/>
			<polygon style="fill:#002D4F;" points="235.84,278.4 235.133,277.693 262.11,250.715 262.11,241.53 267.734,235.906 
				274.178,235.906 309.349,200.735 310.056,201.442 274.592,236.906 268.148,236.906 263.11,241.944 263.11,251.129 			"/>
		</g>
		<g>
			<g>
				<text transform="matrix(1 0 0 1 88.5302 376.7116)" style="fill:#002D4F; font-family:'Poppins-Medium'; font-size:42.7002px;">data analysis</text>
			</g>
			
				<text transform="matrix(1 0 0 1 132.8701 404.3645)" style="fill:#3382D1; font-family:'Poppins-Medium'; font-size:14.6855px; letter-spacing:2;">You slogan goes here</text>
			<g>
				<path style="fill:#EA3560;" d="M125.211,403.306c-2.008,0-3.641-1.633-3.641-3.641c0-2.008,1.633-3.641,3.641-3.641
					c2.008,0,3.641,1.633,3.641,3.641C128.852,401.673,127.219,403.306,125.211,403.306z M125.211,398.025
					c-0.904,0-1.641,0.736-1.641,1.641c0,0.905,0.736,1.641,1.641,1.641c0.904,0,1.641-0.736,1.641-1.641
					C126.852,398.761,126.115,398.025,125.211,398.025z"/>
				<path style="fill:#EA3560;" d="M374.789,403.306c-2.008,0-3.641-1.633-3.641-3.641c0-2.008,1.633-3.641,3.641-3.641
					c2.008,0,3.641,1.633,3.641,3.641C378.43,401.673,376.797,403.306,374.789,403.306z M374.789,398.025
					c-0.904,0-1.641,0.736-1.641,1.641c0,0.905,0.736,1.641,1.641,1.641s1.641-0.736,1.641-1.641
					C376.43,398.761,375.693,398.025,374.789,398.025z"/>
			</g>
		</g>
	</g>
</g>
</svg>
