<?xml version="1.0" encoding="utf-8"?>
<!-- Generator: Adobe Illustrator 27.5.0, SVG Export Plug-In . SVG Version: 6.00 Build 0)  -->
<svg version="1.1" id="Layer_1" xmlns:xodm="http://www.corel.com/coreldraw/odm/2003"
	 xmlns="http://www.w3.org/2000/svg" xmlns:xlink="http://www.w3.org/1999/xlink" x="0px" y="0px" viewBox="0 0 4000 4000"
	 style="enable-background:new 0 0 4000 4000;" xml:space="preserve">
<g id="Layer_x5F_1">
	<g id="_2354129515056">
		<rect style="fill-rule:evenodd;clip-rule:evenodd;fill:#FFFFFF;" width="4000" height="4000"/>
		<path style="fill-rule:evenodd;clip-rule:evenodd;fill:#787CFF;" d="M1519.13,1077.25h961.75
			c244.044,0,441.88,197.836,441.88,441.88v961.75c0,244.044-197.836,441.88-441.88,441.88h-961.75
			c-244.044,0-441.88-197.836-441.88-441.88v-961.75C1077.25,1275.086,1275.086,1077.25,1519.13,1077.25z"/>
		<path style="fill-rule:evenodd;clip-rule:evenodd;fill:#FFFFFF;" d="M2261.34,1530.6l107.06,80.56
			c43.94,33.07,52.96,95.48,19.8,139.55l-478.51,635.89l-231.68,119.18c-20.65,10.62-44.03,8.62-62.58-5.34
			c-18.56-13.96-26.95-35.87-22.46-58.65l50.32-255.49l478.51-635.89C2154.87,1506.46,2217.27,1497.44,2261.34,1530.6
			L2261.34,1530.6z M2089.65,1731.71l64.7,191.18l167.19-222.18c5.25-6.98,3.96-17.54-3.14-22.89l-107.05-80.56
			c-6.99-5.25-17.55-3.96-22.89,3.14L2089.65,1731.71z M2087.74,2011.41l-64.7-191.18l-112.84,149.95l64.7,191.18L2087.74,2011.41z
			 M1908.29,2249.88l-64.7-191.18l-108.63,144.35l133.16,100.21L1908.29,2249.88L1908.29,2249.88z M1797.56,2354.44l-92.2-69.37
			l-23.55,127.24L1797.56,2354.44L1797.56,2354.44z"/>
	</g>
</g>
</svg>
