<svg width="500" height="500" viewBox="0 0 500 500" fill="none" xmlns="http://www.w3.org/2000/svg">
<path d="M54.194 257.705C74.489 280.68 100.177 289.607 112.845 317.522C121.529 336.657 117.455 359.311 123.871 379.32C132.665 406.746 161.557 425.17 190.358 425.269C219.159 425.368 246.613 409.05 263.703 385.868C269.308 378.265 274.166 369.717 282.023 364.475C293.276 356.968 307.873 357.933 321.346 356.732C354.567 353.772 386.049 335.117 404.599 307.399C404.599 307.399 452.721 250.618 418.655 169.387C408.753 145.776 392.702 124.092 370.568 111.225C348.434 98.357 309.918 98.051 287.128 109.718C262.898 122.122 246.789 149.309 220.231 155.281C204.837 158.742 188.944 154.244 173.442 151.302C151.697 147.174 129.531 144.61 107.574 147.398C81.731 150.68 55.664 163.638 43.609 192.772C39.387 202.975 37.968 214.168 39.651 225.082C41.159 234.869 44.973 247.266 54.194 257.705Z" fill="#F5F5FF"/>
<path d="M253.902 89.9331C248.316 82.9201 239.613 79.092 230.91 76.935C218.902 73.959 205.989 73.7301 194.341 77.8971C182.693 82.0641 172.476 90.9471 168.181 102.549C163.886 114.151 166.253 128.335 175.165 136.916C180.159 141.724 187.172 144.31 194.067 144.291C198.156 144.727 202.333 144.267 206.176 142.787C214.727 139.493 221.011 132.016 229.211 127.925C238.123 123.48 249.577 122.77 255.608 114.846C261.038 107.711 259.488 96.9461 253.902 89.9331Z" fill="#F5F5FF"/>
<path d="M93.239 338.465C92.308 336.558 91.442 334.628 90.876 332.586C89.065 326.046 90.381 318.587 86.869 312.78C82.459 305.487 71.596 304.156 64.206 308.401C56.816 312.647 52.59 320.953 50.788 329.283C49.678 334.413 49.355 339.877 51.112 344.822C53.156 350.573 57.805 355.042 62.874 358.44C68.51 362.218 75.092 364.991 81.874 364.761C84.894 364.659 87.938 363.858 90.624 362.455C92.742 361.535 94.622 360.113 95.916 358.269C96.856 357.155 97.649 355.919 98.229 354.555C100.638 348.886 98.465 341.426 93.239 338.465Z" fill="#F5F5FF"/>
<path d="M360.462 337.98H148.722C146.735 337.98 145.109 336.354 145.109 334.367V198.507C145.109 196.52 146.735 194.894 148.722 194.894H360.462C362.449 194.894 364.075 196.52 364.075 198.507V334.367C364.075 336.354 362.449 337.98 360.462 337.98Z" fill="#7B70EE"/>
<path d="M358.655 205.299H150.529V324.104H358.655V205.299Z" fill="#D5CBFB"/>
<path d="M255.901 199.67C255.901 200.393 255.315 200.978 254.592 200.978C253.869 200.978 253.284 200.392 253.284 199.67C253.284 198.947 253.87 198.361 254.592 198.361C255.315 198.362 255.901 198.947 255.901 199.67Z" fill="#D5CBFB"/>
<path d="M393.546 384.667L366.65 341.861C365.132 339.445 362.479 337.979 359.626 337.979H249.904H243.834H149.559C146.706 337.979 144.053 339.445 142.535 341.861L115.639 384.667C114.878 385.879 114.607 387.319 114.845 388.71H394.339C394.577 387.32 394.307 385.879 393.546 384.667Z" fill="#D5CBFB"/>
<path d="M114.845 388.711C114.894 388.998 114.957 389.283 115.05 389.563L115.474 390.835C116.26 393.192 118.465 394.781 120.949 394.781H243.833H249.903H388.234C390.718 394.781 392.924 393.191 393.709 390.835L394.133 389.563C394.226 389.283 394.289 388.997 394.338 388.711H114.845Z" fill="#7B70EE"/>
<path d="M159.679 359.104L160.989 356.223H154.508L153.121 359.104H159.679Z" fill="#7B70EE"/>
<path d="M171.096 350.902L171.739 349.399L172.328 348.02H166.057L164.747 350.902H171.096Z" fill="#7B70EE"/>
<path d="M162.328 356.223L161.019 359.104H167.591L168.822 356.223H162.328Z" fill="#7B70EE"/>
<path d="M161.543 355.003L162.853 352.121H156.483L155.095 355.003H161.543Z" fill="#7B70EE"/>
<path d="M293.498 348.02L294.223 350.902H299.796L298.994 348.02H293.498Z" fill="#7B70EE"/>
<path d="M193.503 356.223L192.623 359.104H199.249L200.091 356.223H193.503Z" fill="#7B70EE"/>
<path d="M185.754 356.223L184.717 359.104H191.348L192.228 356.223H185.754Z" fill="#7B70EE"/>
<path d="M177.969 356.223L176.815 359.104H183.421L184.458 356.223H177.969Z" fill="#7B70EE"/>
<path d="M170.148 356.223L168.917 359.104H175.501L176.655 356.223H170.148Z" fill="#7B70EE"/>
<path d="M300.26 348.02L301.062 350.902H306.269L305.426 348.02H300.26Z" fill="#7B70EE"/>
<path d="M215.913 352.121L215.188 355.003H220.428L221.075 352.121H215.913Z" fill="#7B70EE"/>
<path d="M272.764 348.02L273.254 350.902H279.301L278.732 348.02H272.764Z" fill="#7B70EE"/>
<path d="M214.962 350.902L215.687 348.02H210.191L209.388 350.902H214.962Z" fill="#7B70EE"/>
<path d="M208.122 350.902L208.925 348.02H203.759L202.916 350.902H208.122Z" fill="#7B70EE"/>
<path d="M221.349 350.902L221.996 348.02H216.944L216.22 350.902H221.349Z" fill="#7B70EE"/>
<path d="M306.697 348.02L307.539 350.902H314.055L313.173 348.02H306.697Z" fill="#7B70EE"/>
<path d="M188.705 348.02L187.668 350.902H193.855L194.31 349.415L194.736 348.02H188.705Z" fill="#7B70EE"/>
<path d="M186.372 350.902L187.409 348.02H181.253L180.1 350.902H186.372Z" fill="#7B70EE"/>
<path d="M173.655 348.02L172.423 350.902H178.786L179.386 349.402L179.939 348.02H173.655Z" fill="#7B70EE"/>
<path d="M287.189 348.02L287.835 350.902H292.965L292.24 348.02H287.189Z" fill="#7B70EE"/>
<path d="M279.975 348.02L280.544 350.902H286.585L285.939 348.02H279.975Z" fill="#7B70EE"/>
<path d="M201.645 350.902L202.488 348.02H196.011L195.13 350.902H201.645Z" fill="#7B70EE"/>
<path d="M209.265 346.801L210.013 344.118H204.899L204.114 346.801H209.265Z" fill="#7B70EE"/>
<path d="M202.844 346.801L203.628 344.118H197.205L196.384 346.801H202.844Z" fill="#7B70EE"/>
<path d="M265.643 348.02L265.979 350.902H272.017L271.527 348.02H265.643Z" fill="#7B70EE"/>
<path d="M229.45 346.801L229.98 344.118H224.123L223.521 346.801H229.45Z" fill="#7B70EE"/>
<path d="M222.27 346.801L222.873 344.118H217.926L217.252 346.801H222.27Z" fill="#7B70EE"/>
<path d="M215.994 346.801L216.668 344.118H211.279L210.531 346.801H215.994Z" fill="#7B70EE"/>
<path d="M336.857 348.02L338.088 350.902H344.438L343.128 348.02H336.857Z" fill="#7B70EE"/>
<path d="M172.85 346.801L173.997 344.118H167.83L166.611 346.801H172.85Z" fill="#7B70EE"/>
<path d="M180.428 346.801L181.502 344.118H175.323L174.176 346.801H180.428Z" fill="#7B70EE"/>
<path d="M195.109 346.801L195.929 344.118H190.109L189.144 346.801H195.109Z" fill="#7B70EE"/>
<path d="M344.468 348.02L345.778 350.902H352.114L350.726 348.02H344.468Z" fill="#7B70EE"/>
<path d="M187.848 346.801L188.813 344.118H182.816L181.742 346.801H187.848Z" fill="#7B70EE"/>
<path d="M314.448 348.02L315.33 350.902H321.517L320.48 348.02H314.448Z" fill="#7B70EE"/>
<path d="M228.832 356.223L228.263 359.104H234.532L235.023 356.223H228.832Z" fill="#7B70EE"/>
<path d="M201.362 356.223L200.52 359.104H205.836L206.639 356.223H201.362Z" fill="#7B70EE"/>
<path d="M221.405 356.223L220.758 359.104H227.02L227.589 356.223H221.405Z" fill="#7B70EE"/>
<path d="M207.906 356.223L207.103 359.104H212.898L213.623 356.223H207.906Z" fill="#7B70EE"/>
<path d="M214.881 356.223L214.156 359.104H219.507L220.154 356.223H214.881Z" fill="#7B70EE"/>
<path d="M237.658 348.02L237.167 350.902H243.206L243.541 348.02H237.658Z" fill="#7B70EE"/>
<path d="M236.629 346.801L237.086 344.118H231.223L230.693 346.801H236.629Z" fill="#7B70EE"/>
<path d="M229.642 352.121L229.073 355.003H235.231L235.722 352.121H229.642Z" fill="#7B70EE"/>
<path d="M329.245 348.02L330.399 350.902H336.762L335.53 348.02H329.245Z" fill="#7B70EE"/>
<path d="M242.729 355.003L243.064 352.121H236.959L236.468 355.003H242.729Z" fill="#7B70EE"/>
<path d="M321.775 348.02L322.813 350.902H329.085L327.931 348.02H321.775Z" fill="#7B70EE"/>
<path d="M163.407 350.902L164.717 348.02H158.458L157.07 350.902H163.407Z" fill="#7B70EE"/>
<path d="M302.082 359.104L301.279 356.223H295.562L296.286 359.104H302.082Z" fill="#7B70EE"/>
<path d="M209.048 352.121L208.246 355.003H213.93L214.655 352.121H209.048Z" fill="#7B70EE"/>
<path d="M312.8 346.801L311.98 344.118H305.557L306.34 346.801H312.8Z" fill="#7B70EE"/>
<path d="M327.442 346.801L326.369 344.118H320.371L321.337 346.801H327.442Z" fill="#7B70EE"/>
<path d="M320.041 346.801L319.075 344.118H313.256L314.076 346.801H320.041Z" fill="#7B70EE"/>
<path d="M285.664 346.801L285.062 344.118H279.205L279.734 346.801H285.664Z" fill="#7B70EE"/>
<path d="M278.492 346.801L277.962 344.118H272.099L272.556 346.801H278.492Z" fill="#7B70EE"/>
<path d="M335.009 346.801L333.862 344.118H327.683L328.757 346.801H335.009Z" fill="#7B70EE"/>
<path d="M298.654 346.801L297.906 344.118H292.516L293.191 346.801H298.654Z" fill="#7B70EE"/>
<path d="M291.933 346.801L291.258 344.118H286.312L286.914 346.801H291.933Z" fill="#7B70EE"/>
<path d="M295.029 359.104L294.304 356.223H289.031L289.677 359.104H295.029Z" fill="#7B70EE"/>
<path d="M340.268 359.104L339.036 356.223H332.53L333.684 359.104H340.268Z" fill="#7B70EE"/>
<path d="M324.469 359.104L323.431 356.223H316.956L317.837 359.104H324.469Z" fill="#7B70EE"/>
<path d="M356.064 359.104L354.675 356.223H348.196L349.506 359.104H356.064Z" fill="#7B70EE"/>
<path d="M348.167 359.104L346.857 356.223H340.363L341.594 359.104H348.167Z" fill="#7B70EE"/>
<path d="M332.369 359.104L331.215 356.223H324.728L325.764 359.104H332.369Z" fill="#7B70EE"/>
<path d="M288.427 359.104L287.781 356.223H281.596L282.165 359.104H288.427Z" fill="#7B70EE"/>
<path d="M342.574 346.801L341.355 344.118H335.188L336.335 346.801H342.574Z" fill="#7B70EE"/>
<path d="M353.468 350.902H359.315L357.686 348.02H352.08L353.468 350.902Z" fill="#7B70EE"/>
<path d="M308.666 359.104L307.823 356.223H302.545L303.348 359.104H308.666Z" fill="#7B70EE"/>
<path d="M350.139 346.801L348.846 344.118H342.694L343.913 346.801H350.139Z" fill="#7B70EE"/>
<path d="M316.562 359.104L315.681 356.223H309.094L309.936 359.104H316.562Z" fill="#7B70EE"/>
<path d="M356.998 346.801L355.481 344.118H350.2L351.493 346.801H356.998Z" fill="#7B70EE"/>
<path d="M305.07 346.801L304.287 344.118H299.172L299.92 346.801H305.07Z" fill="#7B70EE"/>
<path d="M265.705 359.104L265.37 356.223H259.048L259.165 359.104H265.705Z" fill="#7B70EE"/>
<path d="M171.902 352.121L171.259 353.625L170.67 355.003H177.144L178.297 352.121H171.902Z" fill="#7B70EE"/>
<path d="M272.717 355.003L272.226 352.121H266.12L266.456 355.003H272.717Z" fill="#7B70EE"/>
<path d="M169.343 355.003L170.576 352.121H164.192L163.507 353.628L162.883 355.003H169.343Z" fill="#7B70EE"/>
<path d="M223.247 348.02L222.6 350.902H228.64L229.209 348.02H223.247Z" fill="#7B70EE"/>
<path d="M230.453 348.02L229.883 350.902H235.93L236.421 348.02H230.453Z" fill="#7B70EE"/>
<path d="M194.757 352.121L193.876 355.003H200.447L201.289 352.121H194.757Z" fill="#7B70EE"/>
<path d="M179.611 352.121L178.457 355.003H184.896L185.933 352.121H179.611Z" fill="#7B70EE"/>
<path d="M202.56 352.121L201.718 355.003H206.979L207.782 352.121H202.56Z" fill="#7B70EE"/>
<path d="M258.884 352.121L259 355.003H265.228L264.892 352.121H258.884Z" fill="#7B70EE"/>
<path d="M187.23 352.121L186.193 355.003H192.601L193.482 352.121H187.23Z" fill="#7B70EE"/>
<path d="M264.274 346.801L263.961 344.118H258.561L258.669 346.801H264.274Z" fill="#7B70EE"/>
<path d="M280.922 359.104L280.353 356.223H274.162L274.652 359.104H280.922Z" fill="#7B70EE"/>
<path d="M251.845 344.118L251.736 346.801H257.448L257.34 344.118H251.845Z" fill="#7B70EE"/>
<path d="M251.687 348.02L251.571 350.902H257.613L257.497 348.02H251.687Z" fill="#7B70EE"/>
<path d="M264.751 350.902L264.415 348.02H258.718L258.834 350.902H264.751Z" fill="#7B70EE"/>
<path d="M271.319 346.801L270.862 344.118H265.189L265.502 346.801H271.319Z" fill="#7B70EE"/>
<path d="M251.522 352.121L251.405 355.003H257.779L257.663 352.121H251.522Z" fill="#7B70EE"/>
<path d="M251.357 356.223L251.24 359.104H257.944L257.828 356.223H251.357Z" fill="#7B70EE"/>
<path d="M250.516 346.801L250.624 344.118H245.223L244.911 346.801H250.516Z" fill="#7B70EE"/>
<path d="M237.866 346.801H243.683L243.995 344.118H238.324L237.866 346.801Z" fill="#7B70EE"/>
<path d="M280.112 355.003L279.542 352.121H273.462L273.954 355.003H280.112Z" fill="#7B70EE"/>
<path d="M222.326 352.121L221.679 355.003H227.83L228.399 352.121H222.326Z" fill="#7B70EE"/>
<path d="M144.544 360.323L143.119 362.844H149.966L151.18 360.323H144.544Z" fill="#7B70EE"/>
<path d="M307.467 355.003L306.625 352.121H301.402L302.206 355.003H307.467Z" fill="#7B70EE"/>
<path d="M303.688 360.323L304.391 362.844H309.759L309.022 360.323H303.688Z" fill="#7B70EE"/>
<path d="M293.997 355.003L293.272 352.121H288.11L288.756 355.003H293.997Z" fill="#7B70EE"/>
<path d="M250.02 359.104L250.136 356.223H243.815L243.48 359.104H250.02Z" fill="#7B70EE"/>
<path d="M326.203 360.323L327.11 362.844H333.866L332.858 360.323H326.203Z" fill="#7B70EE"/>
<path d="M346.303 355.003L344.993 352.121H338.609L339.841 355.003H346.303Z" fill="#7B70EE"/>
<path d="M334.172 360.323L335.18 362.844H341.867L340.789 360.323H334.172Z" fill="#7B70EE"/>
<path d="M236.26 356.223L235.769 359.104H242.252L242.587 356.223H236.26Z" fill="#7B70EE"/>
<path d="M146.861 356.223L145.233 359.104H151.767L153.155 356.223H146.861Z" fill="#7B70EE"/>
<path d="M267.074 360.323L267.368 362.844H274.053L273.624 360.323H267.074Z" fill="#7B70EE"/>
<path d="M168.396 360.323L167.318 362.844H174.004L175.013 360.323H168.396Z" fill="#7B70EE"/>
<path d="M249.971 360.323H243.338L243.045 362.844H249.869L249.971 360.323Z" fill="#7B70EE"/>
<path d="M338.514 355.003L337.284 352.121H330.888L332.041 355.003H338.514Z" fill="#7B70EE"/>
<path d="M152.534 360.323L151.319 362.844H157.979L159.125 360.323H152.534Z" fill="#7B70EE"/>
<path d="M280.785 352.121L281.355 355.003H287.506L286.86 352.121H280.785Z" fill="#7B70EE"/>
<path d="M310.292 360.323L311.029 362.844H317.706L316.934 360.323H310.292Z" fill="#7B70EE"/>
<path d="M282.406 360.323L282.903 362.844H289.267L288.702 360.323H282.406Z" fill="#7B70EE"/>
<path d="M315.308 355.003L314.427 352.121H307.896L308.737 355.003H315.308Z" fill="#7B70EE"/>
<path d="M322.993 355.003L321.955 352.121H315.703L316.584 355.003H322.993Z" fill="#7B70EE"/>
<path d="M274.861 360.323L275.29 362.844H281.66L281.163 360.323H274.861Z" fill="#7B70EE"/>
<path d="M318.21 360.323L318.982 362.844H325.814L324.907 360.323H318.21Z" fill="#7B70EE"/>
<path d="M151.498 348.02L149.869 350.902H155.717L157.105 348.02H151.498Z" fill="#7B70EE"/>
<path d="M350.06 360.323L351.206 362.844H357.865L356.65 360.323H350.06Z" fill="#7B70EE"/>
<path d="M153.703 344.118L152.187 346.801H157.692L158.984 344.118H153.703Z" fill="#7B70EE"/>
<path d="M330.727 355.003L329.574 352.121H323.251L324.289 355.003H330.727Z" fill="#7B70EE"/>
<path d="M233.895 362.844L234.324 360.323H176.327L175.317 362.844H233.895Z" fill="#7B70EE"/>
<path d="M289.952 360.323L290.517 362.844H295.97L295.335 360.323H289.952Z" fill="#7B70EE"/>
<path d="M244.434 350.902H250.351L250.467 348.02H244.769L244.434 350.902Z" fill="#7B70EE"/>
<path d="M362.323 356.223H356.029L359.219 362.844H366.066L362.323 356.223Z" fill="#7B70EE"/>
<path d="M355.443 355.003H361.634L360.004 352.121H354.055L355.443 355.003Z" fill="#7B70EE"/>
<path d="M354.089 355.003L352.701 352.121H346.332L347.642 355.003H354.089Z" fill="#7B70EE"/>
<path d="M241.817 362.844L242.11 360.323H235.561L235.132 362.844H241.817Z" fill="#7B70EE"/>
<path d="M251.192 360.323L251.09 362.844H266.141L265.846 360.323H251.192Z" fill="#7B70EE"/>
<path d="M342.116 360.323L343.193 362.844H349.867L348.721 360.323H342.116Z" fill="#7B70EE"/>
<path d="M300.94 355.003L300.136 352.121H294.53L295.255 355.003H300.94Z" fill="#7B70EE"/>
<path d="M296.593 360.323L297.228 362.844H303.125L302.422 360.323H296.593Z" fill="#7B70EE"/>
<path d="M149.179 352.121L147.551 355.003H153.742L155.13 352.121H149.179Z" fill="#7B70EE"/>
<path d="M165.271 346.801L166.491 344.118H160.338L159.046 346.801H165.271Z" fill="#7B70EE"/>
<path d="M160.464 360.323L159.318 362.844H165.991L167.069 360.323H160.464Z" fill="#7B70EE"/>
<path d="M250.185 355.003L250.302 352.121H244.292L243.957 355.003H250.185Z" fill="#7B70EE"/>
<path d="M272.925 356.223H266.598L266.933 359.104H273.416L272.925 356.223Z" fill="#7B70EE"/>
<path d="M292.8 384.32H216.385C216.06 384.32 215.763 384.17 215.57 383.909C215.377 383.648 215.322 383.32 215.417 383.009L220.275 367.221C220.407 366.793 220.796 366.507 221.243 366.507H287.943C288.39 366.507 288.779 366.794 288.911 367.221L293.769 383.009C293.865 383.32 293.809 383.648 293.616 383.909C293.422 384.17 293.125 384.32 292.8 384.32ZM221.242 367.41C221.193 367.41 221.152 367.441 221.137 367.488L216.28 383.276C216.266 383.319 216.281 383.353 216.296 383.373C216.311 383.393 216.338 383.417 216.384 383.417H292.8C292.846 383.417 292.873 383.393 292.888 383.373C292.903 383.353 292.918 383.319 292.905 383.276L288.047 367.487C288.033 367.442 287.99 367.41 287.942 367.41H221.242Z" fill="#7B70EE"/>
<path d="M291.701 223.505L208.694 236.597L288.505 276.529L371.169 264.235L291.701 223.505Z" fill="#1C1C84"/>
<path d="M208.694 236.597V238.496L288.565 280.236L371.169 266.053V264.235L288.505 276.529L208.694 236.597Z" fill="#2525AD"/>
<path d="M239.568 281.523L238.296 289.962C238.296 289.962 272.381 317.329 320.442 303.873L321.178 297.279C278.696 304.387 251.954 290.616 239.568 281.523Z" fill="#2525AD"/>
<path d="M340.766 325.959C336.318 322.431 333.167 317.227 331.666 311.752C331.555 311.346 331.013 311.493 330.95 311.841C330.849 311.706 330.646 311.687 330.483 311.772C330.405 311.49 329.946 311.361 329.77 311.702C326.72 317.615 329.076 324.294 331.117 330.143C331.277 330.603 331.786 330.355 331.625 329.894C330.028 325.316 328.318 320.19 329.29 315.367C328.748 321.465 330.78 327.71 334.502 332.549C334.771 332.898 335.188 332.479 334.918 332.127C331.539 327.734 329.793 322.159 329.973 316.622C330.077 318.803 330.415 320.978 331.113 323.035C332.182 326.186 333.969 329.194 335.758 331.984C336.021 332.395 336.436 331.972 336.173 331.562C334.454 328.88 332.971 325.999 331.898 322.988C331.438 321.698 331.136 320.346 330.943 318.975C331.971 323.41 334.113 327.58 337.192 330.965C337.516 331.321 337.945 331.005 337.617 330.644C334.243 326.935 332.215 322.186 331.378 317.286C332.616 321.875 334.9 326.215 337.917 329.943C338.222 330.32 338.54 329.911 338.232 329.53C335.287 325.891 333.34 321.636 332.124 317.159C333.762 321.777 335.888 326.232 339.643 329.516C340.011 329.838 340.413 329.465 340.046 329.144C337.467 326.888 335.767 323.841 334.381 320.785C335.885 323.457 337.693 325.954 339.791 328.211C340.123 328.568 340.403 328 340.075 327.647C338.229 325.662 336.813 323.463 335.441 321.138C336.854 323.031 338.496 324.755 340.356 326.23C340.736 326.533 341.149 326.263 340.766 325.959Z" fill="#F0C64B"/>
<path d="M332.948 262.056C331.214 259.984 328.873 258.622 326.475 257.459C321.706 255.147 316.409 254.142 311.24 253.164C303.934 251.782 296.46 250.502 290.385 245.898C290.149 245.719 289.921 245.809 289.785 245.991C289.773 246.002 289.765 246.016 289.755 246.028C289.751 246.035 289.746 246.039 289.742 246.046C289.596 246.226 289.556 246.485 289.773 246.692C294.225 250.948 300.177 253.055 306.036 254.538C311.957 256.037 318 257.063 323.667 259.416C323.843 259.489 324.019 259.562 324.195 259.635C324.229 259.649 324.416 259.735 324.418 259.734C324.708 259.875 324.995 260.02 325.284 260.163C326.345 260.689 327.378 261.234 328.349 261.917C329.513 262.736 330.591 263.739 331.339 264.958C332.157 266.291 332.441 267.786 332.411 269.336C332.38 270.949 332.081 272.553 331.819 274.141C331.548 275.786 331.304 277.435 331.051 279.082C330.528 282.488 330.041 285.896 329.673 289.322C328.864 296.864 328.643 304.557 329.999 312.052C330.1 312.608 331.033 312.486 330.991 311.918C330.464 304.805 331.044 297.673 332.042 290.626C332.539 287.119 333.141 283.626 333.754 280.137C334.329 276.862 335.089 273.561 335.358 270.243C335.602 267.234 334.905 264.395 332.948 262.056Z" fill="#F0C64B"/>
<path d="M329.623 312.588C329.709 312.546 329.796 312.508 329.884 312.471C329.937 312.45 329.935 312.451 329.876 312.473C329.902 312.464 329.927 312.454 329.953 312.446C329.992 312.433 330.031 312.42 330.07 312.408C330.259 312.35 330.452 312.308 330.648 312.28C330.695 312.273 330.743 312.265 330.79 312.262C330.658 312.269 330.812 312.262 330.838 312.26C330.933 312.255 331.029 312.253 331.124 312.255C331.219 312.257 331.314 312.262 331.409 312.271C331.456 312.276 331.504 312.281 331.551 312.287C331.578 312.291 331.605 312.294 331.632 312.299C331.566 312.287 331.562 312.286 331.619 312.297C331.758 312.323 331.88 312.33 332.01 312.261C332.117 312.204 332.221 312.088 332.253 311.968C332.317 311.731 332.202 311.386 331.924 311.334C330.975 311.157 330.017 311.269 329.146 311.696C328.908 311.813 328.803 312.15 328.939 312.38C329.082 312.623 329.369 312.713 329.623 312.588Z" fill="#D8A32B"/>
<path d="M329.522 311.602C329.608 311.56 329.695 311.522 329.783 311.485C329.836 311.464 329.834 311.465 329.775 311.487C329.801 311.478 329.826 311.469 329.852 311.46C329.891 311.447 329.93 311.434 329.969 311.422C330.158 311.364 330.351 311.321 330.547 311.294C330.594 311.287 330.642 311.279 330.689 311.276C330.557 311.283 330.711 311.276 330.737 311.274C330.832 311.269 330.928 311.267 331.023 311.269C331.118 311.271 331.214 311.276 331.308 311.286C331.356 311.291 331.403 311.296 331.45 311.302C331.477 311.306 331.504 311.31 331.531 311.314C331.465 311.302 331.46 311.301 331.518 311.312C331.657 311.338 331.779 311.345 331.909 311.276C332.016 311.219 332.121 311.102 332.152 310.983C332.216 310.746 332.101 310.4 331.823 310.349C330.873 310.172 329.916 310.284 329.045 310.711C328.808 310.828 328.702 311.166 328.838 311.395C328.981 311.637 329.267 311.727 329.522 311.602Z" fill="#D8A32B"/>
<path d="M323.674 277.421L324.086 274.137L288.565 280.236L243.848 256.867L242.89 262.389L287.672 284.934L323.674 277.421Z" fill="#0C0C5B"/>
<path d="M287.672 284.934L242.889 262.389L239.568 281.523C251.954 290.616 278.696 304.387 321.178 297.28L323.673 277.421L287.672 284.934Z" fill="#1C1C84"/>
<path d="M233.385 310.894C235.367 316.233 231.108 322.738 223.873 325.424C216.638 328.11 212.508 324.723 209.614 319.818C205.381 312.644 209.461 308.775 216.696 306.089C223.932 303.404 231.403 305.555 233.385 310.894Z" fill="#FFF6DC"/>
<path d="M161.136 252.093C161.136 252.093 179.091 270.583 193.804 303.77C193.804 303.77 200.782 321.786 205.36 326.29C205.36 326.29 201.655 322.115 207.313 315.449C211.469 310.553 217.53 307.553 223.947 307.326C227.532 307.199 231.278 307.949 233.41 310.963C233.41 310.963 209.464 282.755 193.819 258.416C187.568 248.692 184.609 240.658 183.31 234.516C183.31 234.516 182.131 233.129 179.782 231.969C171.144 227.703 160.969 233.445 159.462 242.96C159.321 243.848 159.233 244.794 159.21 245.8C159.21 245.8 159.086 250.017 161.136 252.093Z" fill="white"/>
<path d="M205.36 326.291C205.36 326.291 213.219 335.773 231.017 324.395C231.017 324.395 242.033 317.046 236.534 304.245C236.534 304.245 225.11 295.729 216.102 284.934C207.094 274.139 195.952 259.442 186.707 240.003L184.35 238.577C184.35 238.577 186.049 247.795 197.052 263.328C208.055 278.862 228.352 304.868 228.352 304.868L231.456 308.608C233.238 310.755 233.85 313.704 232.866 316.315C231.464 320.033 227.351 324.437 215.866 325.105L208.694 313.97C208.694 313.97 201.73 319.738 205.36 326.291Z" fill="#F4E7BD"/>
<path d="M222.744 292.153C222.744 292.153 202.117 270.644 187.657 236.597C187.657 236.597 185.049 232.452 183.39 230.539C183.39 230.539 195.96 269.393 222.744 292.153Z" fill="white"/>
<path d="M184.807 285.911C189.147 278.084 198.524 272.907 207.451 273.355C210.628 273.514 210.619 269.563 207.451 269.404C196.864 268.873 186.368 274.157 181.234 283.419C181.234 283.419 183.264 288.694 184.807 285.911Z" fill="#F0C64B"/>
<path d="M152.851 300.299H112.368C107.001 300.299 102.61 295.908 102.61 290.541V269.458C102.61 264.091 107.001 259.7 112.368 259.7H152.851C158.218 259.7 162.609 264.091 162.609 269.458V290.541C162.609 295.908 158.218 300.299 152.851 300.299Z" fill="#2525AD"/>
<path d="M126.17 280V272.565L132.61 276.282L139.049 280L132.61 283.718L126.17 287.435V280Z" fill="#D5CBFB"/>
<path d="M120.888 210.758C120.888 198.362 110.839 188.314 98.444 188.314C86.049 188.314 76 198.362 76 210.758C76 219.742 81.28 227.489 88.905 231.075V238.233H107.984V231.075C115.608 227.489 120.888 219.742 120.888 210.758Z" fill="white"/>
<path d="M108.598 241.932H88.29C87.272 241.932 86.44 241.1 86.44 240.082C86.44 239.064 87.272 238.232 88.29 238.232H108.599C109.616 238.232 110.449 239.064 110.449 240.082C110.448 241.1 109.616 241.932 108.598 241.932Z" fill="#F0C64B"/>
<path d="M98.444 252.43C94.346 252.43 91.024 249.108 91.024 245.01V243.783H105.865V245.01C105.864 249.108 102.542 252.43 98.444 252.43Z" fill="#F0C64B"/>
<path d="M108.598 245.632H88.29C87.272 245.632 86.44 244.799 86.44 243.782C86.44 242.765 87.272 241.932 88.29 241.932H108.599C109.616 241.932 110.449 242.764 110.449 243.782C110.448 244.8 109.616 245.632 108.598 245.632Z" fill="#D8A32B"/>
<path d="M100.485 238.233H99.433V207.053C99.433 206.508 98.989 206.064 98.444 206.064C97.898 206.064 97.454 206.508 97.454 207.053V238.233H96.402V207.053C96.402 205.927 97.318 205.012 98.444 205.012C99.57 205.012 100.485 205.927 100.485 207.053V238.233Z" fill="#F0C64B"/>
<path d="M63.167 203.106L62.551 206.318L71.932 208.116C72.058 207.02 72.25 205.945 72.504 204.893L63.167 203.106Z" fill="#7B70EE"/>
<path d="M70.5981 188.314L68.6201 190.923L76.1021 196.587C76.7011 195.672 77.3551 194.795 78.0591 193.963L70.5981 188.314Z" fill="#7B70EE"/>
<path d="M83.713 178.323L80.791 179.794L84.997 188.132C85.936 187.583 86.909 187.087 87.916 186.654L83.713 178.323Z" fill="#7B70EE"/>
<path d="M134.337 206.318L133.721 203.106L124.383 204.893C124.637 205.944 124.83 207.02 124.955 208.116L134.337 206.318Z" fill="#7B70EE"/>
<path d="M128.267 190.923L126.289 188.314L118.828 193.963C119.532 194.796 120.185 195.672 120.785 196.587L128.267 190.923Z" fill="#7B70EE"/>
<path d="M116.097 179.794L113.175 178.323L108.971 186.655C109.978 187.088 110.951 187.584 111.89 188.133L116.097 179.794Z" fill="#7B70EE"/>
<path d="M100.116 184.552L100.035 175.06L96.762 175.09L96.844 184.546C97.374 184.515 97.906 184.494 98.443 184.494C99.006 184.495 99.563 184.518 100.116 184.552Z" fill="#7B70EE"/>
<path d="M429.974 382.176H335.124V400.877H429.974V382.176Z" fill="#F0C64B"/>
<path d="M344.282 382.176H340.462V400.877H344.282V382.176Z" fill="#D8A32B"/>
<path d="M350.017 382.176H346.196V400.877H350.017V382.176Z" fill="#D8A32B"/>
<path d="M418.902 382.176H415.081V400.877H418.902V382.176Z" fill="#D8A32B"/>
<path d="M424.635 382.176H420.814V400.877H424.635V382.176Z" fill="#D8A32B"/>
<path d="M439.1 371.755V368.878C439.1 364.789 435.773 361.463 431.685 361.463H347.149V379.171H431.685C435.773 379.171 439.1 375.844 439.1 371.755Z" fill="white"/>
<path d="M431.684 358.347H346.595V359.905V361.463H431.684C435.773 361.463 439.099 364.79 439.099 368.878V371.755C439.099 375.844 435.772 379.17 431.684 379.17H346.595V380.728V382.286H431.684C437.491 382.286 442.215 377.562 442.215 371.755V368.878C442.215 363.071 437.491 358.347 431.684 358.347Z" fill="#2525AD"/>
<path d="M433.34 365.427H347.148V366.844H433.34V365.427Z" fill="#F5F5FF"/>
<path d="M433.34 369.695H347.148V371.112H433.34V369.695Z" fill="#F5F5FF"/>
<path d="M433.34 373.963H347.148V375.38H433.34V373.963Z" fill="#F5F5FF"/>
<path d="M339.902 348.975V346.384C339.902 342.702 342.897 339.707 346.579 339.707H422.699V355.652H346.579C342.898 355.652 339.902 352.657 339.902 348.975Z" fill="white"/>
<path d="M346.579 336.901H423.197V338.304V339.707H346.579C342.897 339.707 339.902 342.702 339.902 346.384V348.975C339.902 352.657 342.897 355.652 346.579 355.652H423.197V357.055V358.458H346.579C341.35 358.458 337.096 354.204 337.096 348.975V346.384C337.096 341.155 341.35 336.901 346.579 336.901Z" fill="#F0C64B"/>
<path d="M345.088 344.552H422.699V343.276H345.088V344.552Z" fill="#F5F5FF"/>
<path d="M345.088 348.395H422.699V347.119H345.088V348.395Z" fill="#F5F5FF"/>
<path d="M345.088 352.239H422.699V350.963H345.088V352.239Z" fill="#F5F5FF"/>
<path d="M186.959 138.065C190.542 138.065 193.446 140.881 193.446 144.354V145.311C194.751 148.982 195.545 153.76 195.545 158.999C195.545 164.238 194.75 169.015 193.446 172.687V173.644C193.446 177.117 190.542 179.933 186.959 179.933C182.217 179.933 178.373 170.561 178.373 158.999C178.372 147.437 182.217 138.065 186.959 138.065Z" fill="#F0C64B"/>
<path d="M181.29 159.265C181.29 166.337 181.838 172.071 182.513 172.071C183.189 172.071 183.736 166.338 183.736 159.265C183.736 152.193 183.188 146.459 182.513 146.459C181.838 146.46 181.29 152.193 181.29 159.265Z" fill="#D8A32B"/>
<path d="M202.529 149.513V150.352V168.179V169.018C202.087 173.844 197.648 178.317 191.698 179.933V168.179V150.352V138.598C197.648 140.214 202.087 144.687 202.529 149.513Z" fill="#7B70EE"/>
<path d="M191.698 182.173C192.667 182.173 193.459 181.405 193.459 180.466V138.065C193.459 137.126 192.666 136.357 191.698 136.357C190.729 136.357 189.937 137.125 189.937 138.065V180.466C189.936 181.405 190.729 182.173 191.698 182.173Z" fill="#2525AD"/>
<path d="M153.26 138.065C149.677 138.065 146.773 140.881 146.773 144.354V145.311C145.468 148.982 144.674 153.76 144.674 158.999C144.674 164.238 145.469 169.015 146.773 172.687V173.644C146.773 177.117 149.677 179.933 153.26 179.933C158.002 179.933 161.846 170.561 161.846 158.999C161.846 147.437 158.002 138.065 153.26 138.065Z" fill="#F0C64B"/>
<path d="M158.928 159.265C158.928 166.337 158.38 172.071 157.705 172.071C157.03 172.071 156.482 166.338 156.482 159.265C156.482 152.193 157.03 146.459 157.705 146.459C158.38 146.46 158.928 152.193 158.928 159.265Z" fill="#D8A32B"/>
<path d="M137.689 149.513V150.352V168.179V169.018C138.131 173.844 142.57 178.317 148.52 179.933V168.179V150.352V138.598C142.57 140.214 138.131 144.687 137.689 149.513Z" fill="#7B70EE"/>
<path d="M148.521 182.173C147.552 182.173 146.76 181.405 146.76 180.466V138.065C146.76 137.126 147.552 136.357 148.521 136.357C149.49 136.357 150.282 137.125 150.282 138.065V180.466C150.282 181.405 149.489 182.173 148.521 182.173Z" fill="#2525AD"/>
<path d="M191.864 112.261C188.345 109.356 183.73 107.517 179.353 106.443C174.859 105.34 170.165 105.058 165.57 105.591C164.183 105.752 162.802 105.969 161.436 106.257C160.501 106.454 159.474 106.608 158.607 107.019C157.701 107.449 156.813 107.923 155.917 108.375C153.491 109.598 151.064 110.821 148.638 112.044C147.672 112.531 147.786 113.944 148.638 114.46C150.881 115.82 153.45 115.994 155.99 115.589C157.776 115.304 159.407 114.641 161.102 114.054C164.147 112.999 167.437 112.483 170.653 112.468C173.52 112.455 176.428 112.884 179.077 114.017C182.996 115.705 187.684 116.828 191.581 114.46C192.289 114.028 192.58 112.852 191.864 112.261Z" fill="#7B70EE"/>
<path d="M170.715 104.035L170.721 104.004C170.516 104.004 170.314 104.016 170.109 104.019C169.905 104.016 169.703 104.004 169.497 104.004L169.503 104.035C149.299 104.679 133.115 121.249 133.115 141.609V164.427C133.115 166.961 135.169 169.016 137.704 169.016V146.52L137.605 145.935C136.059 136.812 138.036 127.317 143.602 119.926C146.202 116.474 149.724 113.223 154.492 110.874C154.549 110.846 154.605 110.819 154.662 110.791C164.377 106.055 175.842 106.055 185.557 110.791C185.614 110.819 185.67 110.846 185.727 110.874C190.524 113.237 194.059 116.513 196.663 119.987C202.197 127.372 204.156 136.843 202.613 145.941L202.515 146.521V169.017C205.049 169.017 207.104 166.963 207.104 164.428V141.61C207.103 121.249 190.919 104.679 170.715 104.035Z" fill="#2525AD"/>
<path d="M448.14 185.82H388.473V272.108H448.14V185.82Z" fill="#D5CBFB"/>
<path d="M441.699 198.476H394.913V200.386H441.699V198.476Z" fill="#7B70EE"/>
<path d="M441.699 207.243H394.913V209.153H441.699V207.243Z" fill="#7B70EE"/>
<path d="M441.699 216.011H394.913V217.921H441.699V216.011Z" fill="#7B70EE"/>
<path d="M441.699 224.778H394.913V226.688H441.699V224.778Z" fill="#7B70EE"/>
<path d="M441.699 233.545H394.913V235.455H441.699V233.545Z" fill="#7B70EE"/>
<path d="M441.699 242.313H394.913V244.223H441.699V242.313Z" fill="#7B70EE"/>
<path d="M441.7 263.61H394.914V264.136H441.7V263.61Z" fill="white"/>
<path d="M401.306 255.324C403.696 255.726 406.123 255.846 408.539 255.636C410.771 255.442 413.141 255.066 415.223 254.208C416.705 253.597 418.32 251.923 417.28 250.231C416.364 248.74 414.065 248.588 412.542 248.95C410.766 249.373 409.186 250.536 408.106 251.988C407.025 253.441 406.273 255.536 407.552 257.108C408.734 258.56 410.898 258.851 412.641 258.609C413.62 258.473 414.574 258.149 415.431 257.653C415.831 257.421 416.202 257.147 416.557 256.852C417.021 256.468 417.508 255.958 418.135 255.871C418.888 255.766 419.061 256.336 419.54 256.746C419.873 257.031 420.301 257.127 420.73 257.084C421.259 257.03 421.74 256.802 422.23 256.613C422.847 256.374 423.457 256.285 424.118 256.3C426.964 256.368 429.833 256.746 432.67 256.977C433.176 257.018 433.174 256.545 432.67 256.504C430.558 256.332 428.445 255.845 426.333 255.674C425.369 255.596 424.378 255.448 423.41 255.527C422.5 255.602 421.769 256.074 420.898 256.261C419.919 256.47 419.784 255.486 419 255.184C418.304 254.917 417.538 255.142 416.943 255.54C416.217 256.025 415.626 256.657 414.85 257.076C413.98 257.545 412.998 257.827 412.011 257.887C410.411 257.984 408.029 257.496 407.692 255.603C407.384 253.876 408.817 252.093 410.065 251.074C411.347 250.027 413.077 249.334 414.748 249.64C415.543 249.786 416.581 250.16 416.776 251.052C417.003 252.093 416.083 252.933 415.248 253.342C414.273 253.82 413.146 254.064 412.092 254.299C410.922 254.56 409.737 254.744 408.542 254.848C406.199 255.051 403.838 255.165 401.519 254.774C401.019 254.69 400.805 255.24 401.306 255.324Z" fill="#7B70EE"/>
<path d="M468.084 238.197L457.595 232.506L460.678 226.823C461.345 225.593 462.883 225.137 464.113 225.804L470.148 229.079C471.378 229.746 471.834 231.284 471.167 232.514L468.084 238.197Z" fill="#D5CBFB"/>
<path d="M467.344 239.517L456.855 233.826L426.559 289.661L437.047 295.352L467.344 239.517Z" fill="#2525AD"/>
<path d="M463.967 237.691L460.221 235.659L429.925 291.493L433.671 293.526L463.967 237.691Z" fill="#1C1C84"/>
<path d="M469.952 237.686L456.966 230.639L455.604 233.15L468.59 240.196L469.952 237.686Z" fill="#F0C64B"/>
<path d="M437.056 295.378L426.567 289.687L425.503 299.203L429.658 301.458L437.056 295.378Z" fill="#D5CBFB"/>
<path d="M429.658 301.458L425.503 299.203L424.805 305.445L429.658 301.458Z" fill="#2525AD"/>
<path d="M92.965 141.242L103.698 151.975" stroke="#7B70EE" stroke-width="2.1457" stroke-miterlimit="10"/>
<path d="M103.914 141.242L93.181 151.975" stroke="#7B70EE" stroke-width="2.1457" stroke-miterlimit="10"/>
<path d="M454.037 302.228L464.77 312.961" stroke="#7B70EE" stroke-width="2.1457" stroke-miterlimit="10"/>
<path d="M464.985 302.228L454.252 312.961" stroke="#7B70EE" stroke-width="2.1457" stroke-miterlimit="10"/>
<path d="M62.6801 264.615L72.1851 274.119" stroke="#2525AD" stroke-width="1.9001" stroke-miterlimit="10"/>
<path d="M72.375 264.615L62.871 274.119" stroke="#2525AD" stroke-width="1.9001" stroke-miterlimit="10"/>
<path d="M57.644 185.82C57.644 190.11 54.166 193.588 49.876 193.588C45.586 193.588 42.108 190.11 42.108 185.82C42.108 181.53 45.586 178.052 49.876 178.052C54.166 178.051 57.644 181.529 57.644 185.82Z" stroke="#7B70EE" stroke-width="2.1457" stroke-miterlimit="10"/>
<path d="M361.634 179.839C365.924 179.839 369.402 176.361 369.402 172.071C369.402 167.781 365.924 164.303 361.634 164.303C357.344 164.303 353.866 167.781 353.866 172.071C353.866 176.361 357.344 179.839 361.634 179.839Z" stroke="#7B70EE" stroke-width="2.1457" stroke-miterlimit="10"/>
<path d="M397.072 161.239C397.072 162.329 396.188 163.213 395.098 163.213C394.008 163.213 393.124 162.329 393.124 161.239C393.124 160.149 394.008 159.265 395.098 159.265C396.188 159.265 397.072 160.149 397.072 161.239Z" stroke="#2525AD" stroke-width="1.9001" stroke-miterlimit="10"/>
<path d="M206.724 95.422C206.724 96.512 205.84 97.396 204.75 97.396C203.66 97.396 202.776 96.512 202.776 95.422C202.776 94.332 203.66 93.448 204.75 93.448C205.84 93.448 206.724 94.332 206.724 95.422Z" stroke="#2525AD" stroke-width="1.9001" stroke-miterlimit="10"/>
<path d="M80.768 345.921V350.589C74.496 350.942 69.498 356.142 69.498 362.501V366.473C69.498 372.989 74.744 378.294 81.232 378.408C83.588 391.19 94.782 400.877 108.246 400.877C123.422 400.877 135.724 388.575 135.724 373.399V345.921H80.768ZM73.359 366.472V362.5C73.359 358.27 76.626 354.794 80.768 354.449V373.398C80.768 373.776 80.781 374.15 80.796 374.524C76.641 374.193 73.359 370.712 73.359 366.472Z" fill="#2525AD"/>
<path d="M122.036 314.64C118.54 312.837 113.947 313.687 111.137 316.44C110.633 312.43 106.822 309.4 102.826 308.802C98.829 308.204 94.774 309.605 91.267 311.614C87.828 313.584 84.617 316.317 83.176 320.009C81.735 323.701 82.542 328.46 85.807 330.706C87.133 331.618 88.823 331.875 90.41 331.609C90.619 332.865 91.116 334.063 91.933 335.056C94.656 338.367 100.278 338.694 103.367 335.722C105.711 337.796 109.309 338.32 112.147 337C112.764 336.713 113.335 336.338 113.854 335.901C113.645 338.652 112.6 341.345 110.84 343.473C114.249 342.287 117.164 339.745 118.802 336.528C119.876 334.419 120.381 332.036 120.314 329.672C122.968 329.161 125.403 327.219 126.267 324.621C127.51 320.887 125.533 316.442 122.036 314.64Z" fill="#D5CBFB"/>
<path d="M245.356 149.694L245.351 149.693C245.209 149.681 245.061 149.674 244.911 149.674C241.987 149.674 239.608 152.053 239.608 154.977C239.608 157.901 241.987 160.28 244.911 160.28C245.061 160.28 245.207 160.274 245.344 160.262C248.077 160.037 250.214 157.716 250.214 154.977C250.214 152.239 248.08 149.918 245.356 149.694Z" fill="#2525AD"/>
<path d="M263.94 154.978C263.94 154.062 263.583 153.201 262.934 152.552C262.286 151.904 261.424 151.547 260.508 151.547H258.544L258.342 150.883C258.079 150.017 257.729 149.174 257.304 148.377L256.977 147.765L258.367 146.375C259.705 145.037 259.705 142.86 258.367 141.522C257.719 140.874 256.857 140.517 255.94 140.517C255.023 140.517 254.162 140.874 253.514 141.521L252.124 142.911L251.512 142.584C250.715 142.158 249.872 141.809 249.006 141.546L248.343 141.344V139.38C248.343 137.755 247.187 136.34 245.595 136.017C245.371 135.972 245.14 135.949 244.912 135.949C243.996 135.949 243.134 136.306 242.486 136.954C241.838 137.603 241.481 138.464 241.481 139.38V141.344L240.818 141.546C239.952 141.809 239.109 142.159 238.312 142.584L237.7 142.911L236.31 141.521C234.973 140.184 232.795 140.184 231.457 141.521C230.81 142.169 230.453 143.031 230.453 143.948C230.453 144.865 230.81 145.726 231.458 146.374L232.848 147.764L232.521 148.376C232.095 149.173 231.746 150.016 231.482 150.882L231.28 151.546H229.316C227.424 151.546 225.885 153.085 225.885 154.977C225.885 155.893 226.242 156.755 226.89 157.403C227.538 158.051 228.4 158.408 229.316 158.408H231.28L231.482 159.071C231.746 159.937 232.095 160.78 232.521 161.577L232.848 162.189L231.458 163.579C230.12 164.917 230.12 167.094 231.458 168.432C232.106 169.079 232.967 169.436 233.885 169.436C234.802 169.436 235.663 169.079 236.311 168.431L237.701 167.041L238.313 167.368C239.11 167.794 239.953 168.143 240.819 168.407L241.482 168.609V170.573C241.482 172.465 243.021 174.004 244.913 174.004C245.135 174.004 245.36 173.982 245.58 173.939L245.685 173.917C246.311 173.773 246.881 173.457 247.339 172.999C247.987 172.35 248.344 171.489 248.344 170.573V168.609L249.007 168.407C249.873 168.144 250.716 167.794 251.513 167.368L252.125 167.041L253.515 168.432C254.161 169.078 255.023 169.434 255.941 169.434C256.859 169.434 257.721 169.078 258.368 168.431C259.015 167.783 259.372 166.921 259.372 166.004C259.372 165.088 259.015 164.226 258.367 163.578L256.977 162.189L257.304 161.577C257.73 160.78 258.079 159.936 258.343 159.071L258.545 158.408H260.509C262.4 158.409 263.94 156.87 263.94 154.978ZM252.01 161.544C250.362 163.325 248.126 164.416 245.714 164.614C245.456 164.636 245.184 164.648 244.911 164.648C239.579 164.648 235.241 160.31 235.241 154.978C235.241 149.646 239.579 145.308 244.911 145.308C245.185 145.308 245.459 145.32 245.725 145.343C248.128 145.54 250.362 146.63 252.011 148.412C253.669 150.204 254.582 152.536 254.582 154.979C254.581 157.421 253.668 159.753 252.01 161.544Z" fill="#2525AD"/>
<path d="M392.188 304.376L392.186 304.379C392.145 304.463 392.107 304.551 392.071 304.642C391.385 306.423 392.276 308.431 394.058 309.116C395.839 309.802 397.847 308.91 398.532 307.129C398.567 307.038 398.597 306.948 398.622 306.861C399.126 305.143 398.213 303.297 396.545 302.655C394.878 302.013 392.963 302.769 392.188 304.376Z" fill="#2525AD"/>
<path d="M399.765 294.294C399.207 294.079 398.598 294.095 398.051 294.337C397.504 294.58 397.085 295.021 396.87 295.579L396.409 296.776L395.957 296.743C395.368 296.7 394.772 296.716 394.187 296.788L393.738 296.844L393.217 295.671C392.716 294.542 391.39 294.032 390.261 294.533C389.714 294.776 389.295 295.217 389.08 295.776C388.865 296.334 388.88 296.943 389.123 297.489L389.644 298.662L389.301 298.958C388.855 299.344 388.444 299.775 388.081 300.241L387.802 300.598L386.605 300.137C385.615 299.756 384.482 300.128 383.912 301.022C383.832 301.148 383.764 301.283 383.71 301.422C383.495 301.98 383.511 302.589 383.753 303.136C383.996 303.683 384.437 304.103 384.995 304.317L386.192 304.778L386.159 305.23C386.116 305.819 386.132 306.415 386.204 307L386.26 307.45L385.087 307.971C383.959 308.472 383.448 309.798 383.949 310.927C384.192 311.473 384.633 311.893 385.192 312.108C385.75 312.323 386.359 312.308 386.906 312.065L388.079 311.544L388.375 311.887C388.76 312.333 389.192 312.744 389.658 313.107L390.015 313.386L389.554 314.583C389.11 315.736 389.687 317.034 390.84 317.478C391.398 317.693 392.007 317.677 392.554 317.435C393.101 317.192 393.52 316.751 393.735 316.193L394.196 314.996L394.648 315.029C395.237 315.072 395.833 315.056 396.418 314.984L396.867 314.928L397.388 316.101C397.889 317.23 399.215 317.74 400.344 317.239C400.89 316.996 401.31 316.555 401.525 315.996C401.74 315.438 401.725 314.829 401.482 314.282L400.961 313.109L401.304 312.813C401.75 312.427 402.161 311.996 402.524 311.53L402.803 311.173L404 311.634C405.153 312.078 406.451 311.501 406.895 310.348C406.947 310.213 406.986 310.071 407.012 309.926L407.023 309.857C407.082 309.442 407.023 309.02 406.851 308.634C406.608 308.087 406.167 307.667 405.609 307.453L404.412 306.992L404.445 306.54C404.487 305.951 404.472 305.355 404.4 304.77L404.344 304.32L405.517 303.799C406.062 303.557 406.481 303.115 406.697 302.556C406.912 301.997 406.897 301.388 406.655 300.842C406.412 300.296 405.971 299.876 405.412 299.661C404.854 299.446 404.245 299.461 403.698 299.704L402.526 300.225L402.23 299.882C401.844 299.436 401.412 299.025 400.947 298.662L400.59 298.383L401.051 297.186C401.494 296.037 400.918 294.738 399.765 294.294ZM400.968 303.102C401.667 304.524 401.806 306.142 401.362 307.658C401.315 307.821 401.258 307.989 401.194 308.155C399.943 311.403 396.283 313.029 393.035 311.778C389.787 310.527 388.161 306.867 389.412 303.619C389.476 303.452 389.548 303.288 389.624 303.132C390.308 301.714 391.496 300.609 392.968 300.023C394.448 299.433 396.083 299.424 397.571 299.997C399.059 300.568 400.265 301.672 400.968 303.102Z" fill="#2525AD"/>
</svg>
