<?xml version="1.0" encoding="utf-8"?>
<!-- Generator: Adobe Illustrator 27.5.0, SVG Export Plug-In . SVG Version: 6.00 Build 0)  -->
<svg version="1.1" xmlns="http://www.w3.org/2000/svg" xmlns:xlink="http://www.w3.org/1999/xlink" x="0px" y="0px"
	 viewBox="0 0 500 500" style="enable-background:new 0 0 500 500;" xml:space="preserve">
<g id="BACKGROUND">
	<rect style="fill:#EDEDED;" width="500" height="500"/>
</g>
<g id="OBJECTS">
	<g>
		<g>
			<g>
				
					<text transform="matrix(1 0 0 1 123.2502 384.4682)" style="fill:#25282A; font-family:'Montserrat-ExtraBold'; font-size:34.0488px; letter-spacing:1;">MARKETING</text>
			</g>
			
				<text transform="matrix(1 0 0 1 202.0051 412.1108)" style="fill:#25282A; font-family:'Montserrat-Medium'; font-size:23.6779px; letter-spacing:1;">LOGO</text>
		</g>
		<g>
			<path style="fill:#4E5EE6;stroke:#25282A;stroke-width:5;stroke-miterlimit:10;" d="M314.641,291.368
				c26.831-21.605,44.016-54.706,44.016-91.836c0-65.098-52.773-117.871-117.871-117.871s-117.871,52.772-117.871,117.871
				c0,65.098,52.772,117.871,117.871,117.871c8.124,0,16.055-0.823,23.716-2.388c12.776,10.57,34.505,20.305,70.342,23.819
				C327.337,328.323,318.422,308.823,314.641,291.368z"/>
			<g>
				<path style="fill:#25282A;" d="M126.223,283.919c55.474,4.179,145.781-1.707,221.079-66.203l13.314,26.199l32.478-69.005
					l-71.177-10.95l13.937,30.362c0,0-67.679,79.693-209.502,83.541C122.506,277.967,122.386,283.63,126.223,283.919z"/>
				<g>
					<path style="fill:#EDEDED;" d="M201.987,189.052v65.886c-11.908,3.066-24.671,5.633-38.326,7.434v-73.319
						c0-4.385,3.547-7.933,7.932-7.933h22.461C198.44,181.119,201.987,184.667,201.987,189.052z"/>
					<path style="fill:#EDEDED;" d="M254.254,158.444v77.847c-11.391,5.312-24.173,10.357-38.326,14.707v-92.554
						c0-4.385,3.547-7.933,7.932-7.933h22.461C250.706,150.512,254.254,154.059,254.254,158.444z"/>
					<path style="fill:#EDEDED;" d="M306.52,130.814v73.533c-9.394,7.434-22.14,16.311-38.326,24.975v-98.507
						c0-4.367,3.548-7.933,7.933-7.933h22.461C302.955,122.881,306.52,126.446,306.52,130.814z"/>
				</g>
			</g>
		</g>
	</g>
</g>
</svg>
